<?xml version="1.0" encoding="UTF-8" standalone="no"?>
<!-- Created with Inkscape (http://www.inkscape.org/) -->

<svg
   version="1.1"
   id="svg2"
   width="148.20667"
   height="48.557335"
   viewBox="0 0 148.20667 48.557335"
   sodipodi:docname="Vector Smart Object.ai"
   xmlns:inkscape="http://www.inkscape.org/namespaces/inkscape"
   xmlns:sodipodi="http://sodipodi.sourceforge.net/DTD/sodipodi-0.dtd"
   xmlns="http://www.w3.org/2000/svg"
   xmlns:svg="http://www.w3.org/2000/svg">
  <defs
     id="defs6">
    <clipPath
       clipPathUnits="userSpaceOnUse"
       id="clipPath16">
      <path
         d="M 0,36.418 H 111.155 V 0 H 0 Z"
         id="path14" />
    </clipPath>
  </defs>
  <sodipodi:namedview
     id="namedview4"
     pagecolor="#ffffff"
     bordercolor="#000000"
     borderopacity="0.25"
     inkscape:showpageshadow="2"
     inkscape:pageopacity="0.0"
     inkscape:pagecheckerboard="0"
     inkscape:deskcolor="#d1d1d1" />
  <g
     id="g8"
     inkscape:groupmode="layer"
     inkscape:label="Vector Smart Object"
     transform="matrix(1.3333333,0,0,-1.3333333,0,48.557333)">
    <g
       id="g10">
      <g
         id="g12"
         clip-path="url(#clipPath16)">
        <g
           id="g18"
           transform="translate(17.7437,22.5313)">
          <path
             d="M 0,0 C -1.29,0 -2.334,1.045 -2.334,2.335 -2.334,3.625 -1.29,4.67 0,4.67 1.29,4.67 2.335,3.625 2.335,2.335 2.335,1.045 1.29,0 0,0 m -9.164,0 c -1.289,0 -2.335,1.045 -2.335,2.335 0,1.29 1.046,2.335 2.335,2.335 1.29,0 2.336,-1.045 2.336,-2.335 C -6.828,1.045 -7.874,0 -9.164,0 M 8.568,1.193 C 8.321,8.246 2.53,13.887 -4.582,13.887 c -7.111,0 -12.902,-5.641 -13.15,-12.694 h -0.012 v -17.265 c 0,-1.867 0.959,-2.205 2.131,-0.752 h 10e-4 l 0.178,0.22 c 1.172,1.456 3.076,1.446 4.23,-0.023 l 0.068,-0.086 0.067,-0.086 c 1.155,-1.468 3.062,-1.481 4.238,-0.031 l 0.074,0.09 0.073,0.092 c 1.176,1.451 3.096,1.445 4.266,-0.01 l 0.131,-0.162 v -0.002 c 1.171,-1.453 3.085,-1.453 4.255,0 l 0.001,0.002 0.132,0.162 c 1.17,1.455 3.08,1.453 4.245,-0.008 l 0.058,-0.074 0.058,-0.073 c 1.165,-1.46 2.118,-1.126 2.118,0.741 V 1.193 Z"
             style="fill:#00c7fc;fill-opacity:1;fill-rule:nonzero;stroke:none"
             id="path20" />
        </g>
        <g
           id="g22"
           transform="translate(50.2866,22.1172)">
          <path
             d="m 0,0 c -0.137,0.129 -0.27,0.193 -0.397,0.193 -0.129,0 -0.229,-0.017 -0.301,-0.048 -0.073,-0.032 -0.137,-0.084 -0.193,-0.157 -0.056,-0.072 -0.1,-0.144 -0.132,-0.217 -0.032,-0.072 -0.068,-0.179 -0.108,-0.324 -0.04,-0.144 -0.073,-0.269 -0.097,-0.373 -0.023,-0.105 -0.06,-0.254 -0.107,-0.445 -0.049,-0.193 -0.114,-0.454 -0.193,-0.781 -0.081,-0.33 -0.177,-0.662 -0.289,-1 1.348,0.867 2.021,1.732 2.021,2.599 C 0.204,-0.313 0.136,-0.129 0,0 m 2.346,-10.348 0.77,-1.179 c -0.24,-0.868 -0.569,-1.598 -0.986,-2.191 -0.418,-0.593 -0.859,-1.018 -1.324,-1.275 -0.818,-0.449 -1.597,-0.675 -2.334,-0.675 -1.284,0 -2.234,0.373 -2.852,1.121 -0.619,0.745 -0.943,1.744 -0.975,2.996 -0.048,2.021 -0.168,3.28 -0.361,3.778 -0.193,0.496 -0.634,0.779 -1.324,0.842 l 0.168,1.806 c 0.289,0.047 0.514,0.111 0.675,0.191 0.16,0.08 0.368,0.241 0.625,0.482 0.546,0.481 0.947,1.612 1.204,3.393 0.208,1.348 0.637,2.327 1.287,2.936 0.65,0.609 1.352,0.916 2.106,0.916 0.754,0 1.42,-0.223 1.997,-0.662 C 1.6,1.689 1.889,0.979 1.889,0 c 0,-1.299 -0.47,-2.422 -1.408,-3.369 -0.939,-0.947 -2.242,-1.805 -3.911,-2.574 0.578,-0.274 1.003,-0.731 1.276,-1.373 0.272,-0.641 0.425,-1.317 0.457,-2.022 0.032,-0.705 0.056,-1.387 0.072,-2.045 0.064,-1.541 0.521,-2.31 1.372,-2.31 0.995,0 1.861,1.115 2.599,3.345 m -16.028,-2.263 c 0,-0.577 0.273,-0.866 0.818,-0.866 0.224,0 0.461,0.148 0.71,0.446 0.249,0.297 0.421,0.765 0.518,1.408 l 0.192,1.492 c -1.492,-0.867 -2.238,-1.693 -2.238,-2.48 m 1.035,-3.057 c -0.851,0 -1.533,0.258 -2.046,0.772 -0.514,0.512 -0.77,1.169 -0.77,1.972 0,1.879 1.42,3.49 4.26,4.838 0.112,0.945 0.272,2.286 0.481,4.02 0.401,3.56 0.641,5.63 0.722,6.209 0.658,0.417 1.344,0.625 2.058,0.625 0.713,0 1.255,-0.04 1.624,-0.12 l -1.781,-13.597 c -0.481,-3.146 -1.997,-4.719 -4.548,-4.719"
             style="fill:#ffffff;fill-opacity:1;fill-rule:nonzero;stroke:none"
             id="path24" />
        </g>
        <g
           id="g26"
           transform="translate(59.5239,16.293)">
          <path
             d="m 0,0 c -1.027,0 -1.841,-0.389 -2.443,-1.167 -0.601,-0.778 -0.959,-1.937 -1.071,-3.478 -0.016,-0.144 -0.024,-0.281 -0.024,-0.408 0,-0.787 0.189,-1.412 0.566,-1.879 0.377,-0.464 0.863,-0.697 1.456,-0.697 1.011,0 1.773,0.715 2.286,2.143 l 0.578,5.197 C 0.882,-0.096 0.433,0 0,0 m 3.875,-9.818 c -1.476,0 -2.455,0.512 -2.936,1.539 -0.835,-1.042 -1.905,-1.565 -3.213,-1.565 -1.308,0 -2.407,0.442 -3.297,1.324 -0.891,0.883 -1.336,2.047 -1.336,3.491 0,2.101 0.617,3.779 1.853,5.029 1.235,1.252 2.8,1.877 4.693,1.877 h 0.145 c 0.801,0 1.54,-0.135 2.214,-0.408 0.433,0.273 0.959,0.408 1.576,0.408 0.617,0 1.063,-0.08 1.336,-0.24 C 4.766,0.449 4.613,-0.718 4.453,-1.865 4.292,-3.012 4.18,-3.826 4.116,-4.307 3.971,-5.398 3.898,-6.186 3.898,-6.666 c 0,-0.643 0.257,-0.963 0.771,-0.963 0.401,0 0.827,0.268 1.276,0.807 0.449,0.537 0.842,1.383 1.179,2.539 C 7.589,-4.701 7.91,-5.166 8.086,-5.68 7.621,-7.204 6.996,-8.275 6.21,-8.893 5.423,-9.51 4.645,-9.818 3.875,-9.818"
             style="fill:#ffffff;fill-opacity:1;fill-rule:nonzero;stroke:none"
             id="path28" />
        </g>
        <g
           id="g30"
           transform="translate(71.3516,16.6777)">
          <path
             d="m 0,0 c 0.385,0.402 0.578,0.69 0.578,0.867 0,0.401 -0.177,0.617 -0.53,0.651 -0.401,0 -0.602,-0.226 -0.602,-0.674 C -0.554,0.57 -0.369,0.289 0,0 m 5.223,-2.719 c 1.267,-0.931 1.902,-2.029 1.902,-3.297 0,-1.267 -0.499,-2.287 -1.493,-3.056 -0.995,-0.771 -2.246,-1.157 -3.755,-1.157 -0.979,0 -1.793,0.245 -2.442,0.735 -0.65,0.49 -0.975,1.096 -0.975,1.817 0,0.722 0.24,1.296 0.722,1.722 0.481,0.424 1.083,0.685 1.805,0.781 -0.337,-0.48 -0.506,-0.943 -0.506,-1.383 0,-0.442 0.153,-0.798 0.457,-1.072 0.305,-0.272 0.69,-0.408 1.156,-0.408 0.465,0 0.85,0.172 1.155,0.517 0.305,0.344 0.457,0.743 0.457,1.192 0,0.737 -0.345,1.394 -1.035,1.973 -0.417,0.336 -0.866,0.654 -1.347,0.951 -0.481,0.295 -0.739,0.453 -0.771,0.468 -0.064,0.049 -0.128,0.088 -0.192,0.122 -0.289,-0.338 -0.706,-0.799 -1.252,-1.385 -0.545,-0.586 -0.978,-1.055 -1.299,-1.406 -0.899,-0.981 -1.404,-1.799 -1.517,-2.457 -0.032,-0.127 -0.047,-0.373 -0.047,-0.733 0,-0.361 0.108,-0.734 0.324,-1.119 0.217,-0.386 0.478,-0.675 0.783,-0.867 0.304,-0.192 0.605,-0.349 0.902,-0.469 0.297,-0.121 0.554,-0.205 0.77,-0.253 0.217,-0.048 0.326,-0.081 0.326,-0.097 0,-0.111 -0.177,-0.24 -0.53,-0.384 -0.658,-0.241 -1.344,-0.362 -2.058,-0.362 -0.714,0 -1.408,0.257 -2.082,0.77 -0.914,0.707 -1.371,1.644 -1.371,2.816 0,0.723 0.185,1.436 0.553,2.143 0.658,1.252 2.199,2.967 4.621,5.15 -0.594,0.594 -0.89,1.227 -0.89,1.901 0,0.673 0.252,1.244 0.758,1.709 0.505,0.464 1.102,0.697 1.793,0.697 0.626,0 1.17,-0.248 1.636,-0.744 0.305,-0.338 0.457,-0.764 0.457,-1.277 0,-0.514 -0.168,-1.09 -0.505,-1.733 1.716,-0.77 2.88,-1.371 3.49,-1.805"
             style="fill:#ffffff;fill-opacity:1;fill-rule:nonzero;stroke:none"
             id="path32" />
        </g>
        <g
           id="g34"
           transform="translate(86.6665,13.2852)">
          <path
             d="m 0,0 c 0,0.705 -0.161,1.332 -0.481,1.877 -0.321,0.545 -0.818,0.818 -1.492,0.818 -0.915,0 -1.613,-0.593 -2.094,-1.781 -0.321,-2.374 -0.506,-3.754 -0.554,-4.139 -0.016,-0.482 0.136,-0.843 0.457,-1.084 0.321,-0.24 0.714,-0.36 1.18,-0.36 0.818,0 1.492,0.368 2.022,1.106 C -0.321,-2.647 0,-1.46 0,0 m -5.535,4.91 c 1.042,0 1.652,-0.265 1.829,-0.795 0.753,0.53 1.708,0.795 2.864,0.795 1.155,0 2.15,-0.474 2.984,-1.42 C 2.976,2.543 3.393,1.436 3.393,0.168 3.393,-0.008 3.385,-0.193 3.37,-0.385 3.192,-2.486 2.487,-4.088 1.251,-5.186 c -1.235,-1.099 -2.848,-1.65 -4.837,-1.65 -0.45,0 -0.938,0.057 -1.468,0.17 l -0.77,-6.619 h -3.153 c 1.027,8.84 1.717,14.84 2.07,18.002 0.337,0.129 0.794,0.193 1.372,0.193"
             style="fill:#ffffff;fill-opacity:1;fill-rule:nonzero;stroke:none"
             id="path36" />
        </g>
        <g
           id="g38"
           transform="translate(97.2808,13.1895)">
          <path
             d="m 0,0 c 0.489,0.594 0.734,1.167 0.734,1.719 0,0.554 -0.149,0.931 -0.445,1.133 -0.297,0.2 -0.622,0.3 -0.975,0.3 -0.754,0 -1.416,-0.422 -1.985,-1.263 -0.57,-0.842 -0.854,-1.846 -0.854,-3.008 0,-1.164 0.275,-2.031 0.829,-2.6 0.554,-0.57 1.24,-0.854 2.058,-0.854 1.203,0 2.359,0.417 3.466,1.251 1.107,0.834 2.005,1.926 2.695,3.273 C 5.876,-0.387 6.197,-0.803 6.486,-1.301 5.957,-2.504 5.018,-3.684 3.67,-4.838 2.996,-5.398 2.198,-5.857 1.276,-6.211 0.353,-6.563 -0.598,-6.74 -1.577,-6.74 c -1.604,0 -2.872,0.49 -3.802,1.469 -0.995,1.058 -1.492,2.415 -1.492,4.068 0,1.652 0.621,3.096 1.865,4.331 1.243,1.235 2.732,1.852 4.464,1.852 1.236,0 2.239,-0.267 3.009,-0.804 0.77,-0.539 1.163,-1.264 1.179,-2.179 0,-1.235 -0.493,-2.238 -1.48,-3.009 -0.987,-0.769 -2.338,-1.306 -4.055,-1.611 l -0.337,1.42 C -1.231,-0.996 -0.49,-0.594 0,0"
             style="fill:#ffffff;fill-opacity:1;fill-rule:nonzero;stroke:none"
             id="path40" />
        </g>
        <g
           id="g42"
           transform="translate(105.957,13.1406)">
          <path
             d="m 0,0 c -0.289,-2.311 -0.434,-3.475 -0.434,-3.49 0,-0.674 0.273,-1.01 0.819,-1.01 0.705,0 1.059,0.568 1.059,1.709 C 1.444,-1.861 0.962,-0.93 0,0 m 2.936,1.877 c 0,0.707 -0.325,1.06 -0.975,1.06 -0.649,0 -1.167,-0.418 -1.552,-1.253 1.733,-1.364 2.599,-2.895 2.599,-4.596 0,-1.236 -0.345,-2.174 -1.035,-2.817 -0.69,-0.64 -1.556,-0.962 -2.598,-0.962 -1.044,0 -1.806,0.326 -2.287,0.974 -0.482,0.651 -0.723,1.473 -0.723,2.468 0,0.305 0.009,0.53 0.024,0.675 l 0.843,7.34 c 0.578,0.175 1.163,0.263 1.757,0.263 0.978,0 1.468,-0.36 1.468,-1.083 V 3.898 c 0.642,0.754 1.46,1.131 2.455,1.131 0.722,0 1.283,-0.164 1.684,-0.492 C 4.997,4.207 5.198,3.77 5.198,3.225 5.198,2.68 4.994,2.234 4.584,1.889 4.175,1.544 3.642,1.373 2.984,1.373 H 2.888 C 2.92,1.549 2.936,1.717 2.936,1.877"
             style="fill:#ffffff;fill-opacity:1;fill-rule:nonzero;stroke:none"
             id="path44" />
        </g>
        <g
           id="g46"
           transform="translate(74.9106,21.4805)">
          <path
             d="M 0,0 H -0.814 V 4.285 H -2.28 V 4.982 H 1.466 V 4.285 H 0 Z"
             style="fill:#00c7fc;fill-opacity:1;fill-rule:nonzero;stroke:none"
             id="path48" />
        </g>
        <g
           id="g50"
           transform="translate(80.4375,21.4805)">
          <path
             d="M 0,0 H -2.819 V 4.982 H 0 V 4.295 H -2.004 V 2.938 h 1.878 V 2.257 H -2.004 V 0.691 l 2.004,0 z"
             style="fill:#00c7fc;fill-opacity:1;fill-rule:nonzero;stroke:none"
             id="path52" />
        </g>
        <g
           id="g54"
           transform="translate(84.2002,21.4805)">
          <path
             d="M 0,0 -1.445,4.162 H -1.473 C -1.434,3.544 -1.415,2.965 -1.415,2.424 V 0 h -0.739 v 4.982 h 1.148 L 0.378,1.02 h 0.02 L 1.824,4.982 H 2.977 V 0 H 2.192 v 2.465 c 0,0.248 0.006,0.57 0.019,0.968 C 2.223,3.83 2.234,4.07 2.244,4.154 H 2.216 L 0.719,0 Z"
             style="fill:#00c7fc;fill-opacity:1;fill-rule:nonzero;stroke:none"
             id="path56" />
        </g>
        <g
           id="g58"
           transform="translate(89.5156,24.0313)">
          <path
             d="m 0,0 h 0.433 c 0.418,0 0.725,0.072 0.921,0.217 0.195,0.145 0.292,0.373 0.292,0.681 0,0.288 -0.087,0.5 -0.262,0.641 C 1.209,1.681 0.937,1.752 0.566,1.752 H 0 Z M 2.485,0.926 C 2.485,0.406 2.314,0.006 1.974,-0.271 1.633,-0.547 1.148,-0.688 0.519,-0.688 H 0 V -2.551 H -0.815 V 2.432 H 0.621 C 1.243,2.432 1.71,2.306 2.02,2.051 2.331,1.797 2.485,1.422 2.485,0.926"
             style="fill:#00c7fc;fill-opacity:1;fill-rule:nonzero;stroke:none"
             id="path60" />
        </g>
        <g
           id="g62"
           transform="translate(93.3145,21.4805)">
          <path
             d="M 0,0 V 4.982 H 0.815 V 0.699 h 2.11 V 0 Z"
             style="fill:#00c7fc;fill-opacity:1;fill-rule:nonzero;stroke:none"
             id="path64" />
        </g>
        <g
           id="g66"
           transform="translate(100.062,23.5664)">
          <path
             d="m 0,0 -0.467,1.357 c -0.034,0.09 -0.081,0.233 -0.141,0.43 -0.06,0.195 -0.102,0.338 -0.125,0.43 -0.06,-0.281 -0.15,-0.586 -0.269,-0.918 L -1.452,0 Z M 0.713,-2.086 0.215,-0.703 H -1.69 l -0.488,-1.383 h -0.859 l 1.865,5.004 h 0.886 l 1.865,-5.004 z"
             style="fill:#00c7fc;fill-opacity:1;fill-rule:nonzero;stroke:none"
             id="path68" />
        </g>
        <g
           id="g70"
           transform="translate(104.4448,21.4805)">
          <path
             d="M 0,0 H -0.815 V 4.285 H -2.281 V 4.982 H 1.466 V 4.285 H 0 Z"
             style="fill:#00c7fc;fill-opacity:1;fill-rule:nonzero;stroke:none"
             id="path72" />
        </g>
        <g
           id="g74"
           transform="translate(109.8115,21.4805)">
          <path
             d="M 0,0 H -2.818 V 4.982 H 0 V 4.295 H -2.004 V 2.938 h 1.878 V 2.257 H -2.004 V 0.691 l 2.004,0 z"
             style="fill:#00c7fc;fill-opacity:1;fill-rule:nonzero;stroke:none"
             id="path76" />
        </g>
      </g>
    </g>
  </g>
</svg>
